<svg width="128" height="113" viewBox="0 0 128 113" fill="none" xmlns="http://www.w3.org/2000/svg">
<g id="my-orders-page_img" clip-path="url(#clip0_588_23620)">
<g id="&#208;&#161;&#208;&#187;&#208;&#190;&#208;&#185; 1">
<g id="Group">
<g id="Layer 1">
<path id="Vector" opacity="0.3" d="M127.989 38.2808C127.769 8.97713 95.2691 -18.0946 44.5091 15.623C10.7691 38.0317 0.829091 54.771 0.0190915 82.1616C-0.800909 109.542 24.9291 116.607 51.1391 111.425C77.3491 106.244 128.219 67.5845 127.999 38.2908L127.989 38.2808Z" fill="#E4B596"/>
</g>
<path id="Vector_2" fill-rule="evenodd" clip-rule="evenodd" d="M49.5375 30.4784C49.5375 27.7184 51.7875 25.4766 54.5575 25.4766H70.8275C73.5975 25.4766 75.8475 27.7184 75.8475 30.4784C75.8475 30.6976 76.0275 30.8869 76.2575 30.8869H78.9675C81.0175 30.8869 82.9875 31.694 84.4375 33.1388C85.8875 34.5835 86.6975 36.5464 86.6975 38.589V76.4217C86.6975 78.4643 85.8875 80.4272 84.4375 81.8719C82.9875 83.3167 81.0175 84.1238 78.9675 84.1238H46.4175C44.3675 84.1238 42.3975 83.3167 40.9475 81.8719C39.4975 80.4272 38.6875 78.4643 38.6875 76.4217V38.579C38.6875 36.5364 39.4975 34.5736 40.9475 33.1288C42.3975 31.684 44.3675 30.877 46.4175 30.877H49.1275C49.3475 30.877 49.5375 30.6976 49.5375 30.4685V30.4784ZM54.5575 30.0699C54.3375 30.0699 54.1475 30.2492 54.1475 30.4784V35.8788C54.1475 36.098 54.3275 36.2873 54.5575 36.2873H70.8275C71.0475 36.2873 71.2375 36.108 71.2375 35.8788V30.4784C71.2375 30.3688 71.1975 30.2692 71.1175 30.1895C71.0375 30.1098 70.9375 30.0699 70.8275 30.0699H54.5575ZM46.4175 35.4703C45.5875 35.4703 44.7975 35.7991 44.2075 36.377C43.6275 36.9549 43.2975 37.752 43.2975 38.579V76.4118C43.2975 77.2388 43.6275 78.0259 44.2075 78.6138C44.7875 79.1917 45.5875 79.5205 46.4175 79.5205H78.9575C79.7875 79.5205 80.5775 79.1917 81.1675 78.6138C81.7475 78.0359 82.0775 77.2388 82.0775 76.4118V38.579C82.0775 37.752 81.7475 36.9649 81.1675 36.377C80.5875 35.7991 79.7875 35.4703 78.9575 35.4703H76.2475C76.0275 35.4703 75.8375 35.6496 75.8375 35.8788C75.8375 38.6388 73.5875 40.8807 70.8175 40.8807H54.5475C51.7775 40.8807 49.5275 38.6388 49.5275 35.8788C49.5275 35.6596 49.3475 35.4703 49.1175 35.4703H46.4075H46.4175ZM49.5375 52.09C49.5375 50.8246 50.5675 49.7884 51.8475 49.7884H51.8775C53.1475 49.7884 54.1875 50.8146 54.1875 52.09C54.1875 53.3654 53.1575 54.3916 51.8775 54.3916H51.8475C50.5775 54.3916 49.5375 53.3654 49.5375 52.09ZM60.3875 52.09C60.3875 50.8246 61.4175 49.7884 62.6975 49.7884H73.5475C74.8175 49.7884 75.8575 50.8146 75.8575 52.09C75.8575 53.3654 74.8275 54.3916 73.5475 54.3916H62.6975C61.4275 54.3916 60.3875 53.3654 60.3875 52.09ZM49.5375 65.601C49.5375 64.3356 50.5675 63.2993 51.8475 63.2993H51.8775C53.1475 63.2993 54.1875 64.3256 54.1875 65.601C54.1875 66.8763 53.1575 67.9026 51.8775 67.9026H51.8475C50.5775 67.9026 49.5375 66.8763 49.5375 65.601ZM60.3875 65.601C60.3875 64.3356 61.4175 63.2993 62.6975 63.2993H73.5475C74.8175 63.2993 75.8575 64.3256 75.8575 65.601C75.8575 66.8763 74.8275 67.9026 73.5475 67.9026H62.6975C61.4275 67.9026 60.3875 66.8763 60.3875 65.601Z" fill="#E2B596"/>
</g>
</g>
</g>
<defs>
<clipPath id="clip0_588_23620">
<rect width="128" height="113" fill="white"/>
</clipPath>
</defs>
</svg>
