<svg width="150" height="112" viewBox="0 0 150 112" fill="none" xmlns="http://www.w3.org/2000/svg">
<g id="cart-empty_img_basket" clip-path="url(#clip0_476_14399)">
<g id="&#208;&#161;&#208;&#187;&#208;&#190;&#208;&#185; 1">
<g id="Group">
<g id="Layer 1">
<path id="Vector" opacity="0.3" d="M16.1595 9.64015L143.955 58.4484C149.174 60.4483 151.504 66.4081 148.974 71.3079C131.515 105.027 96.0564 122.656 50.0882 105.097C4.5699 87.7073 -6.80967 52.2086 3.54994 15.7999C5.05988 10.5001 10.9097 7.64022 16.1495 9.64015H16.1595Z" fill="#E4B596"/>
</g>
<path id="&#208;&#186;&#208;&#190;&#209;&#128;&#208;&#183;&#208;&#184;&#208;&#189;&#208;&#176;" fill-rule="evenodd" clip-rule="evenodd" d="M122.894 27.1794L122.894 27.1776L121.918 26.9624L121.919 26.9592C122.14 25.966 121.903 24.9205 121.263 24.12L121.262 24.1191C120.63 23.328 119.661 22.8623 118.649 22.8623H103.313L98.7758 21.8623H98.7695L103.307 22.8623H47.44L44.682 9.94121L45.755 10.1777L45.7549 10.1773L44.6819 9.94083L43.3416 3.66125C43.0134 2.1119 41.6478 1 40.064 1H31.3544C29.6294 1 28.2023 2.31292 28.0194 4.00567V4.36454C28.0194 5.13973 28.2791 5.85295 28.7152 6.42201L27.3887 6.12966C27.3887 6.12967 27.3887 6.12968 27.3887 6.12969L28.7152 6.42206C29.3294 7.22348 30.2933 7.73897 31.3742 7.73897H34.6902L37.5017 8.35864L41.434 26.7786L41.4384 26.8071C41.4516 26.8929 41.4724 26.9852 41.5036 27.1203L41.5055 27.1284L48.386 59.3912C48.9712 62.1435 50.4983 64.6117 52.7005 66.3569L52.7016 66.3578C54.8854 68.0938 57.6079 69.0162 60.3932 68.9614L60.403 68.9612H102.971C105.719 68.9612 108.378 68.0119 110.518 66.2835C112.656 64.5569 114.138 62.1524 114.733 59.4525L121.917 26.9642L122.894 27.1794ZM37.5017 8.35841L44.6819 9.94083L44.682 9.94121L37.5017 8.35864L37.5017 8.35841ZM37.5017 8.35841L34.6909 7.73897H37.3694L37.5017 8.35841ZM34.6909 7.73897L28.7152 6.42201C28.7152 6.42203 28.7152 6.42204 28.7152 6.42206L34.6902 7.73897H34.6909ZM121.917 26.9642L121.918 26.9624L103.313 22.8623H103.307L121.917 26.9642ZM114.46 29.6111H48.884L54.931 57.9738L54.9313 57.9752C55.1879 59.1953 55.8695 60.2875 56.8388 61.0629C57.8161 61.8447 59.0324 62.2441 60.2747 62.2223H102.961C104.185 62.2223 105.366 61.7942 106.311 61.0303C107.262 60.2623 107.917 59.1928 108.183 58.0071L114.46 29.6111ZM49.5658 87.2511C49.5658 82.9693 53.022 79.5023 57.2754 79.5023C61.5289 79.5023 64.9851 82.9693 64.9851 87.2511C64.9851 91.5329 61.5289 95 57.2754 95C53.022 95 49.5658 91.5329 49.5658 87.2511ZM97.4787 87.2511C97.4787 82.9693 100.935 79.5023 105.188 79.5023C109.442 79.5023 112.898 82.9693 112.898 87.2511C112.898 91.5329 109.442 95 105.188 95C100.935 95 97.4787 91.5329 97.4787 87.2511Z" fill="#E3B596"/>
</g>
</g>
</g>
<defs>
<clipPath id="clip0_476_14399">
<rect width="150" height="112" fill="white"/>
</clipPath>
</defs>
</svg>
