<svg xmlns="http://www.w3.org/2000/svg" width="180" height="180" viewBox="0 0 140 140" fill="none">
  <path
    d="M117.22 89.0988C116.471 77.6454 111.655 66.9804 103.465 58.7894C96.5891 51.9141 87.9707 47.4182 78.6054 45.7067C79.1731 44.4729 79.4664 43.1308 79.4657 41.7727C79.4657 36.5537 75.2195 32.3076 70.0003 32.3076C64.7814 32.3076 60.5353 36.5539 60.5353 41.7727C60.5348 43.1307 60.8279 44.4727 61.3948 45.7067C52.0306 47.4182 43.4119 51.9141 36.5363 58.7896C28.3456 66.9802 23.5291 77.6454 22.7808 89.0988H16.1543V92.2537C16.1543 96.4684 17.8419 100.439 20.9058 103.433C23.9368 106.397 27.9267 108.029 32.1399 108.029H107.861C112.075 108.029 116.065 106.397 119.095 103.433C122.159 100.439 123.846 96.4684 123.846 92.2537V89.0988H117.22ZM66.8454 41.7727C66.8454 40.0333 68.261 38.6177 70.0003 38.6177C71.7398 38.6177 73.1552 40.0333 73.1552 41.7727C73.1552 43.5122 71.7398 44.9278 70.0003 44.9278C68.261 44.9278 66.8454 43.5122 66.8454 41.7727ZM70.0003 51.2379C91.5554 51.2379 109.279 67.9506 110.896 89.0988H29.1048C30.7218 67.9506 48.4459 51.2379 70.0003 51.2379ZM107.861 101.718H32.1399C28.0194 101.718 24.4016 99.0437 23.0395 95.4086H116.961C115.599 99.0437 111.981 101.718 107.861 101.718Z"
    fill="#DBD4CE" />
</svg>
