<svg width="354" height="193" viewBox="0 0 354 193" fill="none" xmlns="http://www.w3.org/2000/svg">
  <mask id="mask0_783_32412" style="mask-type:luminance" maskUnits="userSpaceOnUse" x="117" y="37"
    width="120" height="119">
    <path d="M237 37H117V155.878H237V37Z" fill="white" />
  </mask>
  <g mask="url(#mask0_783_32412)">
    <path opacity="0.4"
      d="M215.803 50.1049C185.878 30.2776 129.795 28.3548 119.342 77.0625C112.394 109.443 120.632 125.876 147.709 144.926C174.787 163.972 204.583 155.72 222.392 138.889C240.2 122.059 245.729 69.9275 215.803 50.1049ZM192.85 101.776C190.38 112.301 179.922 114.425 173.32 113.318C166.717 112.205 157.913 104.13 160.402 94.9191C163.02 85.2188 175.386 79.2826 182.262 80.4526C189.138 81.6226 195.324 91.251 192.855 101.776H192.85Z"
      fill="#E5B596" />
  </g>
  <path opacity="0.4"
    d="M90.5594 111.48V131.96H78.5594V151H56.3194V131.96H3.35938V111.48L40.6394 39H64.3194L27.1994 111.48H56.3194V84.92H78.5594V111.48H90.5594Z"
    fill="#E5B596" />
  <path opacity="0.4"
    d="M351.559 111.48V131.96H339.559V151H317.319V131.96H264.359V111.48L301.639 39H325.319L288.199 111.48H317.319V84.92H339.559V111.48H351.559Z"
    fill="#E5B596" />
</svg>
  