<svg width="384" height="256" viewBox="0 0 384 256" fill="none" xmlns="http://www.w3.org/2000/svg">
<g clip-path="url(#clip0_3658_34449)">
<rect width="384" height="256" fill="#F8F7F6"/>
</g>
<path d="M252.711 152.555C251.748 137.829 245.556 124.117 235.026 113.586C226.186 104.746 215.105 98.9659 203.064 96.7654C203.794 95.1792 204.171 93.4536 204.17 91.7075C204.17 84.9973 198.711 79.5381 192 79.5381C185.29 79.5381 179.831 84.9976 179.831 91.7075C179.83 93.4535 180.207 95.1789 180.936 96.7654C168.896 98.9659 157.815 104.746 148.975 113.586C138.444 124.117 132.251 137.829 131.289 152.555H122.77V156.612C122.77 162.03 124.939 167.135 128.879 170.985C132.776 174.796 137.905 176.894 143.322 176.894H240.678C246.096 176.894 251.226 174.796 255.122 170.985C259.062 167.135 261.231 162.03 261.231 156.612V152.555H252.711ZM187.944 91.7075C187.944 89.4711 189.764 87.651 192 87.651C194.237 87.651 196.056 89.4711 196.056 91.7075C196.056 93.944 194.237 95.7641 192 95.7641C189.764 95.7641 187.944 93.944 187.944 91.7075ZM192 103.877C219.714 103.877 242.502 125.365 244.581 152.555H139.42C141.499 125.365 164.287 103.877 192 103.877ZM240.678 168.78H143.322C138.025 168.78 133.373 165.342 131.622 160.668H252.378C250.627 165.342 245.976 168.78 240.678 168.78Z" fill="#DBD4CE"/>
<defs>
<clipPath id="clip0_3658_34449">
<rect width="384" height="256" fill="white"/>
</clipPath>
</defs>
</svg>
