<svg width="181" height="55" viewBox="0 0 181 55" fill="none" xmlns="http://www.w3.org/2000/svg">
  <g clip-path="url(#clip0_903_46186)">
    <path
      d="M27.5285 21.1523C28.8079 19.6936 29.7161 17.9479 30.176 16.0633C30.685 13.7555 30.2172 11.7358 28.8581 10.3775C27.499 9.0193 25.481 8.55185 23.1717 9.0634C21.0948 9.51909 18.9856 10.7392 17.2323 12.4913C15.746 13.9496 14.6356 15.7462 13.9964 17.7273L16.7675 18.5623C17.2731 17.0375 18.1388 15.6569 19.2916 14.5375C20.6418 13.191 22.2863 12.2238 23.8071 11.8916C24.5661 11.724 25.9664 11.5711 26.8224 12.4296C27.6785 13.2881 27.5255 14.6845 27.3578 15.4401C27.0225 16.96 26.0576 18.6064 24.7103 19.9529C24.3422 20.3216 23.949 20.6644 23.5336 20.9789V15.4754H20.6359V22.6546C18.6652 23.6431 16.8687 24.9459 15.3172 26.5118C12.6991 29.1283 10.8811 32.2652 10.2015 35.3316C9.46904 38.6419 10.1192 41.5054 12.0313 43.4252C13.4316 44.8216 15.3467 45.5448 17.5736 45.5448C18.4338 45.5387 19.2908 45.4401 20.13 45.2509C23.207 44.5717 26.3429 42.7549 28.9552 40.1383C31.5675 37.5218 33.3914 34.3849 34.0709 31.3186C34.8034 28.0112 34.1533 25.1448 32.2411 23.2279C30.9728 21.992 29.3025 21.2523 27.5343 21.1435M31.2498 30.6953C30.6879 33.2383 29.1494 35.8696 26.9166 38.101C24.6838 40.3324 22.0509 41.8729 19.5034 42.4344C17.1941 42.946 15.2672 42.5726 14.0788 41.3849C12.8903 40.1971 12.5196 38.2744 13.0286 35.9637C13.5904 33.4206 15.1319 30.7894 17.3647 28.558C18.3522 27.5714 19.4498 26.7013 20.6359 25.965V38.4685H23.5336V24.5832C23.9405 24.4411 24.3549 24.3214 24.775 24.2246C25.4053 24.0806 26.0494 24.0057 26.6959 24.0011C28.1668 24.0011 29.3612 24.4333 30.2025 25.2741C31.3792 26.4501 31.7616 28.3845 31.2498 30.6953Z"
      fill="#E4B596" />
    <path
      d="M38.5545 8.24647C36.7894 5.69544 34.4207 3.62004 31.659 2.20494C28.782 0.73498 25.4402 0 21.7306 0C18.0211 0 14.7116 0.743801 11.8963 2.21082C9.19681 3.63426 6.90467 5.7216 5.23621 8.27587C3.61825 10.6984 2.39742 13.6442 1.60315 17.031C0.132284 23.9339 0.132284 31.069 1.60315 37.972C2.39742 41.3588 3.61825 44.3046 5.23621 46.7271C6.90191 49.2797 9.19103 51.3661 11.8875 52.7892C14.7028 54.2591 18.0122 55 21.7218 55C25.4313 55 28.782 54.2591 31.6502 52.798C34.4111 51.3819 36.7797 49.3067 38.5457 46.7565C41.8934 42.0261 43.6585 35.3555 43.6585 27.5C43.6585 19.6445 41.8934 12.9886 38.5545 8.24647ZM36.1835 45.0895C32.9063 49.7464 28.0436 52.1071 21.7306 52.1071C15.4765 52.1071 10.7373 49.7552 7.64551 45.1189C4.86555 40.9531 3.39468 34.8616 3.39468 27.5C3.39468 20.1384 4.86555 14.0469 7.64551 9.88107C10.7373 5.24776 15.4765 2.89582 21.7306 2.89582C28.0436 2.89582 32.9093 5.24776 36.1835 9.91341C39.1782 14.1645 40.7638 20.2472 40.7638 27.5C40.7638 34.7528 39.1782 40.8384 36.1835 45.0895Z"
      fill="#E4B596" />
    <path
      d="M76.5739 24.8478C75.4609 23.7509 73.9627 23.1326 72.3996 23.125C68.9548 23.125 66.166 26.1267 66.166 29.831C66.166 33.5353 68.9548 36.5369 72.3996 36.5369C73.9627 36.5293 75.4609 35.911 76.5739 34.8141V36.2547H79.548V23.3808H76.5739V24.8478ZM72.9673 33.8851C70.9081 33.8851 69.2313 32.0888 69.2313 29.8692C69.2313 27.6495 70.9022 25.8562 72.9673 25.8562C73.8138 25.8781 74.6286 26.1822 75.2822 26.7203C75.9357 27.2584 76.3904 27.9994 76.5739 28.8255C76.742 29.5131 76.742 30.2311 76.5739 30.9187C76.3904 31.7448 75.9357 32.4859 75.2822 33.0239C74.6286 33.562 73.8138 33.8662 72.9673 33.888"
      fill="#2E2F2F" />
    <path
      d="M177.509 23.3808V24.8507C176.398 23.7532 174.901 23.1347 173.338 23.1279C169.893 23.1279 167.102 26.1296 167.102 29.8339C167.102 33.5382 169.893 36.5398 173.338 36.5398C174.901 36.5323 176.399 35.9127 177.509 34.8141V36.2547H180.498V23.3808H177.509ZM173.903 33.8851C171.844 33.8851 170.167 32.0888 170.167 29.8692C170.167 27.6495 171.844 25.8562 173.906 25.8562C174.752 25.878 175.566 26.1819 176.219 26.7194C176.872 27.2569 177.326 27.9972 177.509 28.8226C177.682 29.5096 177.682 30.2287 177.509 30.9158C177.326 31.7421 176.872 32.4835 176.218 33.0216C175.565 33.5598 174.75 33.8637 173.903 33.8851Z"
      fill="#2E2F2F" />
    <path
      d="M109.769 23.125C108.205 23.132 106.707 23.7504 105.594 24.8478V23.3778H102.605V41.6053H105.594V34.8141C106.707 35.9115 108.205 36.5299 109.769 36.5369C113.21 36.5369 116.002 33.5353 116.002 29.831C116.002 26.1267 113.21 23.125 109.769 23.125ZM109.201 33.8851C108.354 33.8637 107.539 33.5598 106.886 33.0216C106.232 32.4835 105.777 31.7421 105.594 30.9158C105.422 30.2287 105.422 29.5096 105.594 28.8226C105.778 27.9968 106.233 27.2561 106.886 26.7185C107.54 26.181 108.355 25.8774 109.201 25.8562C111.26 25.8562 112.937 27.6554 112.937 29.8721C112.937 32.0888 111.263 33.888 109.201 33.888"
      fill="#2E2F2F" />
    <path
      d="M91.1564 25.1778C91.1516 25.1952 91.1412 25.2106 91.1269 25.2215C91.1125 25.2324 91.095 25.2384 91.0769 25.2384C91.0589 25.2384 91.0414 25.2324 91.027 25.2215C91.0127 25.2106 91.0023 25.1952 90.9975 25.1778C89.9473 22.3026 82.5782 21.9998 82.5782 28.0531L82.5547 29.3613V36.2554H85.5406V27.8914C85.5406 24.7839 89.5884 24.7839 89.5884 27.8914V36.2554H92.5772V27.8914C92.5772 24.7839 96.6222 24.7839 96.6222 27.8914V36.2554H99.611V28.0913C99.611 22.0027 92.1948 22.3026 91.1564 25.1778Z"
      fill="#2E2F2F" />
    <path
      d="M141.699 34.4585C141.706 34.4427 141.717 34.4294 141.731 34.4199C141.746 34.4105 141.762 34.4055 141.78 34.4055C141.797 34.4055 141.814 34.4105 141.828 34.4199C141.842 34.4294 141.854 34.4427 141.861 34.4585C142.911 37.3367 150.277 37.6365 150.277 31.5832L150.303 30.275V23.3809H147.315V31.7361C147.315 34.8436 143.267 34.8436 143.267 31.7361V23.3809H140.281V31.7361C140.281 34.8436 136.233 34.8436 136.233 31.7361V23.3809H133.244V31.545C133.244 37.6365 140.66 37.3367 141.699 34.4585Z"
      fill="#2E2F2F" />
    <path
      d="M127.266 27.7114C127.266 32.3153 121.006 32.0125 121.006 27.4174V23.3809H118.018V27.4115C118.018 32.8974 123.698 34.9053 127.266 32.3241V35.6844C127.266 40.3471 121.118 40.3883 121.006 35.7991C121.021 35.1543 121.202 34.5243 121.533 33.9705C120.558 33.7075 119.609 33.3541 118.7 32.915C118.22 33.8533 117.987 34.8986 118.023 35.952C118.023 43.7398 130.255 43.7192 130.255 35.6844V23.3809H127.266V27.7114Z"
      fill="#2E2F2F" />
    <path
      d="M165.331 23.8719V23.3691H162.342V24.2746C162.342 27.0529 160.927 28.3347 157.491 28.3347H156.282V23.3809H153.293V36.2548H156.282V30.9012H157.506C161.227 30.9012 162.657 32.43 162.657 35.5639V36.2666H165.651C165.651 32.1507 164.395 30.3867 162.415 29.5047C164.439 28.1583 165.357 26.4854 165.357 23.8601"
      fill="#2E2F2F" />
    <path
      d="M61.3976 26.9911C61.9291 26.5935 62.3583 26.0753 62.6499 25.4793C62.9414 24.8833 63.0869 24.2265 63.0744 23.5632C63.0744 22.0403 62.1184 19.4473 58.1323 19.4473H49.4512V36.2989H59.2296C62.6008 36.2989 64.4217 33.7411 64.4217 31.2422C64.4217 28.4905 62.1036 27.2351 61.3976 26.9999M58.1205 22.1637C60.9064 22.1637 60.927 26.4149 58.1205 26.4149H52.4841V22.1549L58.1205 22.1637ZM58.9266 33.5824H52.4841V28.8197H58.8383C62.2154 28.8197 61.9624 33.5736 58.9383 33.5736"
      fill="#2E2F2F" />
    <path
      d="M104.9 16.7075C105.104 16.7122 105.307 16.675 105.495 16.5981C105.684 16.5212 105.855 16.4063 105.997 16.2606C106.284 15.9635 106.445 15.5667 106.445 15.1537C106.445 14.7408 106.284 14.3439 105.997 14.0469C105.704 13.7624 105.312 13.6032 104.903 13.6032C104.494 13.6032 104.102 13.7624 103.809 14.0469C103.524 14.345 103.365 14.7414 103.365 15.1537C103.365 15.566 103.524 15.9625 103.809 16.2606C103.951 16.4055 104.121 16.5198 104.308 16.5967C104.496 16.6735 104.697 16.7112 104.9 16.7075ZM106.53 16.7839C106.153 17.1637 105.656 17.401 105.123 17.4553C104.591 17.5096 104.056 17.3776 103.61 17.0818C103.164 16.786 102.834 16.3447 102.678 15.8332C102.521 15.3218 102.546 14.7717 102.75 14.277C102.954 13.7823 103.323 13.3736 103.795 13.1206C104.266 12.8675 104.811 12.7859 105.336 12.8895C105.861 12.9931 106.334 13.2756 106.674 13.6888C107.014 14.102 107.2 14.6202 107.201 15.1552C107.206 15.4583 107.149 15.7593 107.033 16.0394C106.917 16.3196 106.745 16.573 106.527 16.7839"
      fill="#2E2F2F" />
    <path
      d="M111.208 14.7876V12.9736H111.964V17.3335H111.208V15.5108H108.948V17.3335H108.189V12.9736H108.948V14.7876H111.208Z"
      fill="#2E2F2F" />
    <path
      d="M113.604 12.9766H116.84V17.3306H116.081V13.7086H114.363V15.4726C114.363 16.1723 114.222 16.6662 113.943 16.9601C113.781 17.1131 113.585 17.2256 113.371 17.2884C113.157 17.3513 112.932 17.3627 112.713 17.3218V16.6074C112.833 16.6369 112.959 16.6333 113.078 16.5971C113.197 16.5609 113.303 16.4933 113.387 16.4016C113.559 16.1188 113.636 15.7877 113.604 15.4579V12.9766Z"
      fill="#2E2F2F" />
    <path
      d="M120.144 16.7139C120.349 16.7197 120.554 16.6833 120.745 16.607C120.935 16.5306 121.108 16.4159 121.253 16.2699C121.398 16.1233 121.512 15.9492 121.588 15.7578C121.664 15.5664 121.701 15.3617 121.697 15.1557C121.703 14.9504 121.666 14.7462 121.59 14.5556C121.513 14.365 121.399 14.192 121.253 14.0473C120.959 13.7576 120.563 13.5951 120.15 13.5951C119.737 13.5951 119.341 13.7576 119.047 14.0473C118.901 14.192 118.786 14.365 118.71 14.5556C118.633 14.7462 118.597 14.9504 118.602 15.1557C118.598 15.3617 118.635 15.5664 118.712 15.7578C118.788 15.9492 118.902 16.1233 119.047 16.2699C119.189 16.415 119.36 16.5292 119.549 16.6056C119.738 16.6819 119.94 16.7188 120.144 16.7139ZM121.697 13.7269V12.9772H122.456V17.3312H121.697V16.5816C121.525 16.8591 121.281 17.0854 120.991 17.2369C120.701 17.3884 120.376 17.4596 120.05 17.443C119.757 17.4486 119.467 17.3926 119.198 17.2786C118.929 17.1646 118.687 16.9952 118.488 16.7815C118.074 16.3411 117.844 15.7597 117.844 15.1557C117.844 14.5517 118.074 13.9703 118.488 13.5299C118.686 13.3148 118.928 13.144 119.197 13.0285C119.466 12.913 119.757 12.8555 120.05 12.8596C120.377 12.8436 120.702 12.9153 120.991 13.0673C121.281 13.2193 121.525 13.446 121.697 13.724"
      fill="#2E2F2F" />
    <path
      d="M126.757 12.3334H124.403V11.6719H126.757V12.3334ZM124.436 16.0465L126.851 12.989H127.463V17.3312H126.713V14.2737L124.297 17.3312H123.674V12.9772H124.424L124.436 16.0465Z"
      fill="#2E2F2F" />
    <path
      d="M131.719 14.7876V12.9736H132.478V17.3335H131.719V15.5108H129.46V17.3335H128.701V12.9736H129.46V14.7876H131.719Z"
      fill="#2E2F2F" />
    <path
      d="M138.729 13.6206V16.6899C139.14 16.6494 139.525 16.4687 139.818 16.1783C140.074 15.8969 140.216 15.53 140.216 15.1494C140.216 14.7688 140.074 14.4019 139.818 14.1204C139.524 13.8321 139.14 13.6527 138.729 13.6118M136.488 15.1464C136.483 15.3347 136.516 15.5222 136.584 15.6978C136.652 15.8734 136.754 16.0337 136.885 16.1695C137.18 16.4605 137.567 16.6411 137.979 16.6811V13.6206C137.57 13.657 137.185 13.8335 136.891 14.1204C136.758 14.2573 136.654 14.4194 136.585 14.5971C136.515 14.7748 136.483 14.9646 136.488 15.1553M138.729 17.4219V19.0771H137.979V17.4219C137.365 17.376 136.788 17.1135 136.35 16.6811C135.957 16.2699 135.738 15.7235 135.738 15.1553C135.738 14.587 135.957 14.0406 136.35 13.6294C136.788 13.1971 137.365 12.9345 137.979 12.8886V11.2334H138.729V12.8886C139.344 12.934 139.923 13.1966 140.362 13.6294C140.753 14.0413 140.971 14.5875 140.971 15.1553C140.971 15.723 140.753 16.2692 140.362 16.6811C139.923 17.1139 139.344 17.3765 138.729 17.4219Z"
      fill="#2E2F2F" />
    <path
      d="M143.573 16.3928L144.829 12.9766H145.641L143.876 17.604C143.724 18.046 143.452 18.437 143.09 18.733C142.764 18.9881 142.353 19.1109 141.94 19.0769V18.3713C142.467 18.4125 142.861 18.1215 143.117 17.4894L143.187 17.3336L141.293 12.9678H142.096L143.573 16.3928Z"
      fill="#2E2F2F" />
    <path
      d="M147.069 16.6103H149.093V13.6704H147.375V14.9845C147.395 15.5375 147.295 16.0882 147.081 16.5985M149.855 12.9766V16.6103H150.443V18.5065H149.693V17.3306H146.422V18.5065H145.672V16.6162H146.204C146.511 16.136 146.659 15.571 146.625 15.0022V12.9824L149.855 12.9766Z"
      fill="#2E2F2F" />
    <path
      d="M154.901 12.9736H155.713V17.3335H154.972V14.1702L153.586 16.3986H153.489L152.104 14.1702V17.3335H151.354V12.9736H152.162L153.533 15.1786L154.901 12.9736Z"
      fill="#2E2F2F" />
    <path
      d="M159.02 16.7139C159.225 16.7193 159.429 16.6827 159.619 16.6064C159.809 16.53 159.982 16.4155 160.126 16.2699C160.271 16.1233 160.385 15.9492 160.461 15.7578C160.537 15.5664 160.574 15.3617 160.57 15.1557C160.576 14.9504 160.539 14.7462 160.463 14.5556C160.386 14.365 160.272 14.192 160.126 14.0473C159.832 13.7576 159.436 13.5951 159.023 13.5951C158.61 13.5951 158.214 13.7576 157.92 14.0473C157.774 14.192 157.659 14.365 157.583 14.5556C157.506 14.7462 157.47 14.9504 157.475 15.1557C157.471 15.3617 157.508 15.5664 157.585 15.7578C157.661 15.9492 157.775 16.1233 157.92 16.2699C158.063 16.4152 158.234 16.5296 158.424 16.6059C158.613 16.6823 158.816 16.719 159.02 16.7139ZM160.57 13.7269V12.9772H161.329V17.3312H160.57V16.5816C160.398 16.8591 160.154 17.0854 159.864 17.2369C159.574 17.3884 159.249 17.4596 158.923 17.443C158.631 17.4482 158.34 17.3921 158.071 17.2781C157.802 17.1641 157.56 16.995 157.361 16.7815C156.947 16.3411 156.717 15.7597 156.717 15.1557C156.717 14.5517 156.947 13.9703 157.361 13.5299C157.56 13.3151 157.801 13.1445 158.071 13.029C158.34 12.9135 158.63 12.8558 158.923 12.8596C159.25 12.8436 159.575 12.9153 159.864 13.0673C160.154 13.2193 160.398 13.446 160.57 13.724"
      fill="#2E2F2F" />
    <path
      d="M164.879 16.7134C165.083 16.7184 165.285 16.6816 165.475 16.6053C165.664 16.5289 165.835 16.4147 165.979 16.2695C166.123 16.1224 166.236 15.9482 166.313 15.7569C166.389 15.5656 166.426 15.3611 166.423 15.1553C166.428 14.9501 166.391 14.7461 166.315 14.5556C166.238 14.3651 166.124 14.192 165.979 14.0469C165.684 13.757 165.288 13.5944 164.874 13.5944C164.461 13.5944 164.064 13.757 163.77 14.0469C163.624 14.192 163.51 14.3651 163.434 14.5556C163.357 14.7461 163.321 14.9501 163.325 15.1553C163.322 15.3611 163.359 15.5656 163.436 15.7569C163.512 15.9482 163.625 16.1224 163.77 16.2695C163.914 16.4152 164.087 16.5297 164.278 16.6061C164.469 16.6824 164.673 16.7189 164.879 16.7134ZM164.976 12.8621C165.268 12.8582 165.558 12.9159 165.827 13.0314C166.095 13.1469 166.337 13.3176 166.535 13.5324C166.95 13.9718 167.182 14.5536 167.182 15.1582C167.182 15.7629 166.95 16.3446 166.535 16.784C166.336 16.9974 166.094 17.1666 165.826 17.2805C165.557 17.3945 165.267 17.4507 164.976 17.4455C164.649 17.4602 164.324 17.3882 164.034 17.2369C163.745 17.0856 163.5 16.8604 163.325 16.5841V19.0771H162.566V12.9768H163.325V13.7265C163.5 13.4496 163.744 13.2238 164.034 13.072C164.324 12.9202 164.649 12.8478 164.976 12.8621Z"
      fill="#2E2F2F" />
    <path
      d="M169.711 15.0845L171.865 17.3335H170.923L168.935 15.2668V17.3335H168.176V12.9736H168.935V14.9022L170.817 12.9736H171.794L169.711 15.0845Z"
      fill="#2E2F2F" />
    <path
      d="M174.299 13.5763C173.933 13.5649 173.576 13.686 173.293 13.9173C173.017 14.1526 172.838 14.4813 172.79 14.8405H175.702C175.662 14.4815 175.491 14.1497 175.222 13.9085C174.966 13.6871 174.637 13.5687 174.299 13.5763ZM176.443 15.502H172.801C172.862 15.8579 173.051 16.1792 173.334 16.4045C173.635 16.6297 174.005 16.7448 174.381 16.7308C174.628 16.749 174.876 16.6995 175.097 16.5876C175.319 16.4758 175.505 16.3057 175.637 16.0958L176.281 16.4604C176.078 16.7796 175.793 17.039 175.456 17.2121C175.119 17.3851 174.742 17.4656 174.363 17.4452C174.053 17.4563 173.743 17.405 173.452 17.2944C173.162 17.1838 172.897 17.0162 172.672 16.8014C172.459 16.5846 172.291 16.3271 172.18 16.0442C172.069 15.7613 172.016 15.4589 172.025 15.155C172.014 14.8527 172.066 14.5513 172.175 14.2693C172.285 13.9873 172.451 13.7306 172.663 13.5146C172.877 13.2974 173.134 13.1273 173.418 13.0149C173.702 12.9026 174.006 12.8504 174.31 12.8619C174.605 12.8526 174.898 12.9087 175.168 13.0261C175.438 13.1436 175.679 13.3194 175.873 13.541C176.279 13.9824 176.497 14.5644 176.481 15.1639C176.481 15.2771 176.472 15.3901 176.455 15.502"
      fill="#2E2F2F" />
    <path d="M176.768 12.9736H180.501V13.7057H179.018V17.3335H178.259V13.7057H176.768V12.9736Z"
      fill="#2E2F2F" />
  </g>
  <defs>
    <clipPath id="clip0_903_46186">
      <rect width="180" height="55" fill="white" transform="translate(0.5)" />
    </clipPath>
  </defs>
</svg>