<svg width="54" height="42" viewBox="0 0 54 42" fill="none" xmlns="http://www.w3.org/2000/svg">
  <g clip-path="url(#clip0_636_23872)">
    <path
      d="M53.82 33.4253C53.82 38.0516 50.0822 41.8188 45.492 41.8188H0.179993V8.57516C0.179993 3.94881 3.91774 0.181641 8.50796 0.181641H53.82V33.4253Z"
      fill="white" />
    <path
      d="M39.0657 24.8989H42.5084C42.6068 24.8989 42.8363 24.8659 42.9346 24.8659C43.5904 24.7337 44.1478 24.1389 44.1478 23.3127C44.1478 22.5196 43.5904 21.9248 42.9346 21.7596C42.8363 21.7266 42.6395 21.7266 42.5084 21.7266H39.0657V24.8989Z"
      fill="url(#paint0_linear_636_23872)" />
    <path
      d="M42.1149 2.99023C38.8362 2.99023 36.1476 5.66691 36.1476 9.00449V15.2501H44.5739C44.7707 15.2501 45.0002 15.2501 45.1641 15.2831C47.0658 15.3822 48.4756 16.3736 48.4756 18.092C48.4756 19.4468 47.5248 20.6034 45.7543 20.8347V20.9008C47.6887 21.033 49.1641 22.1235 49.1641 23.8088C49.1641 25.6263 47.5248 26.816 45.3608 26.816H36.1148V39.0427H44.869C48.1477 39.0427 50.8363 36.3661 50.8363 33.0285V2.99023H42.1149Z"
      fill="url(#paint1_linear_636_23872)" />
    <path
      d="M43.7215 18.4892C43.7215 17.6961 43.1641 17.1673 42.5084 17.0682C42.4428 17.0682 42.2789 17.0352 42.1805 17.0352H39.0657V19.9431H42.1805C42.2789 19.9431 42.4756 19.9431 42.5084 19.9101C43.1641 19.811 43.7215 19.2822 43.7215 18.4892Z"
      fill="url(#paint2_linear_636_23872)" />
    <path
      d="M9.13099 2.99023C5.85227 2.99023 3.16371 5.66691 3.16371 9.00449V23.8419C4.83586 24.668 6.57359 25.1967 8.31131 25.1967C10.3769 25.1967 11.4917 23.941 11.4917 22.2226V15.217H16.6065V22.1896C16.6065 24.8993 14.9343 27.1133 9.26214 27.1133C5.81948 27.1133 3.13092 26.3533 3.13092 26.3533V39.0097H11.8851C15.1639 39.0097 17.8524 36.333 17.8524 32.9954V2.99023H9.13099Z"
      fill="url(#paint3_linear_636_23872)" />
    <path
      d="M25.6229 2.99023C22.3441 2.99023 19.6556 5.66691 19.6556 9.00449V16.8693C21.1638 15.5805 23.7868 14.7544 28.0163 14.9527C30.2787 15.0518 32.7049 15.6797 32.7049 15.6797V18.2241C31.4918 17.5963 30.0491 17.0345 28.1803 16.9023C24.9671 16.671 23.0327 18.2572 23.0327 21.033C23.0327 23.8419 24.9671 25.428 28.1803 25.1637C30.0491 25.0315 31.4918 24.4367 32.7049 23.8419V26.3864C32.7049 26.3864 30.3114 27.0142 28.0163 27.1134C23.7868 27.3116 21.1638 26.4855 19.6556 25.1967V39.0758H28.4098C31.6885 39.0758 34.3771 36.3991 34.3771 33.0615V2.99023H25.6229Z"
      fill="url(#paint4_linear_636_23872)" />
  </g>
  <defs>
    <linearGradient id="paint0_linear_636_23872" x1="36.1422" y1="23.3167" x2="50.8759" y2="23.3167"
      gradientUnits="userSpaceOnUse">
      <stop stop-color="#007940" />
      <stop offset="0.2285" stop-color="#00873F" />
      <stop offset="0.7433" stop-color="#40A737" />
      <stop offset="1" stop-color="#5CB531" />
    </linearGradient>
    <linearGradient id="paint1_linear_636_23872" x1="36.1417" y1="21.0021" x2="50.8766" y2="21.0021"
      gradientUnits="userSpaceOnUse">
      <stop stop-color="#007940" />
      <stop offset="0.2285" stop-color="#00873F" />
      <stop offset="0.7433" stop-color="#40A737" />
      <stop offset="1" stop-color="#5CB531" />
    </linearGradient>
    <linearGradient id="paint2_linear_636_23872" x1="36.1418" y1="18.485" x2="50.8761" y2="18.485"
      gradientUnits="userSpaceOnUse">
      <stop stop-color="#007940" />
      <stop offset="0.2285" stop-color="#00873F" />
      <stop offset="0.7433" stop-color="#40A737" />
      <stop offset="1" stop-color="#5CB531" />
    </linearGradient>
    <linearGradient id="paint3_linear_636_23872" x1="3.15676" y1="21.002" x2="18.1186" y2="21.002"
      gradientUnits="userSpaceOnUse">
      <stop stop-color="#1F286F" />
      <stop offset="0.4751" stop-color="#004E94" />
      <stop offset="0.8261" stop-color="#0066B1" />
      <stop offset="1" stop-color="#006FBC" />
    </linearGradient>
    <linearGradient id="paint4_linear_636_23872" x1="19.5708" y1="21.002" x2="34.1022" y2="21.002"
      gradientUnits="userSpaceOnUse">
      <stop stop-color="#6C2C2F" />
      <stop offset="0.1735" stop-color="#882730" />
      <stop offset="0.5731" stop-color="#BE1833" />
      <stop offset="0.8585" stop-color="#DC0436" />
      <stop offset="1" stop-color="#E60039" />
    </linearGradient>
    <clipPath id="clip0_636_23872">
      <rect width="54" height="42" fill="white" />
    </clipPath>
  </defs>
</svg>
  