<svg width="120" height="36" viewBox="0 0 120 36" fill="none" xmlns="http://www.w3.org/2000/svg">
  <path
    d="M9.30005 3.89922H19.2C20.1 3.89922 22.8 3.59922 24 7.79922C24.9 10.4992 26.1 14.6992 27.9 20.9992H28.5C30.3 14.3992 31.8 9.89922 32.4 7.79922C33.6 3.59922 36.6 3.89922 37.8 3.89922H47.1V32.6992H37.5V15.5992H36.9L31.8 32.6992H24.6L19.5 15.5992H18.6V32.6992H9.30005M51 3.89922H60.6V20.9992H61.5L67.8 6.89922C69 4.19922 71.7 3.89922 71.7 3.89922H80.7V32.6992H71.1V15.5992H70.5L64.2 29.6992C63 32.3992 60 32.6992 60 32.6992H51M93.6 23.9992V32.6992H84.6V17.6992H114C112.8 21.2992 108.6 23.9992 103.8 23.9992"
    fill="#0F754E" />
  <path
    d="M114.6 15.9004C115.8 10.5004 112.2 3.90039 104.4 3.90039H84C84.6 10.2004 90 15.9004 95.7 15.9004"
    fill="url(#paint0_linear_636_23883)" />
  <defs>
    <linearGradient id="paint0_linear_636_23883" x1="111" y1="0.000391078" x2="87" y2="0.000391078"
      gradientUnits="userSpaceOnUse">
      <stop stop-color="#1F5CD7" />
      <stop offset="1" stop-color="#02AEFF" />
    </linearGradient>
  </defs>
</svg>
  