<svg width="40" height="50" viewBox="0 0 40 50" fill="none" xmlns="http://www.w3.org/2000/svg">
<path d="M4 13.707L8.844 22.3654V27.6467L4.00567 36.288L4 13.707Z" fill="#5B57A2"/>
<path d="M22.5989 19.2145L27.1379 16.4325L36.4273 16.4238L22.5989 24.8952V19.2145Z" fill="#D90751"/>
<path d="M22.5733 13.6557L22.599 25.119L17.7436 22.1356V5L22.5736 13.6557H22.5733Z" fill="#FAB718"/>
<path d="M36.4273 16.4237L27.1376 16.4323L22.5733 13.6557L17.7436 5L36.427 16.4237H36.4273Z" fill="#ED6F26"/>
<path d="M22.599 36.336V30.7743L17.7436 27.8477L17.7463 45.0003L22.599 36.336Z" fill="#63B22F"/>
<path d="M27.1266 33.5793L8.84366 22.3654L4 13.707L36.4076 33.568L27.1263 33.5793H27.1266Z" fill="#1487C9"/>
<path d="M17.7467 44.9997L22.5987 36.3354L27.1264 33.5787L36.4074 33.5674L17.7467 44.9997Z" fill="#017F36"/>
<path d="M4.0057 36.2878L17.7833 27.8479L13.1514 25.0059L8.84402 27.6465L4.0057 36.2878Z" fill="#984995"/>
</svg>
