<svg width="98" height="32" viewBox="0 0 98 32" fill="none" xmlns="http://www.w3.org/2000/svg">
  <g clip-path="url(#clip0_636_23886)">
    <path
      d="M63.8315 0C56.8734 0 50.6549 3.63508 50.6549 10.3497C50.6549 18.0509 61.6831 18.5827 61.6831 22.4521C61.6831 24.0813 59.831 25.5395 56.6664 25.5395C52.1764 25.5395 48.8205 23.502 48.8205 23.502L47.3843 30.2788C47.3843 30.2788 51.2504 32 56.3829 32C63.9904 32 69.9773 28.187 69.9773 21.3567C69.9773 13.2186 58.903 12.7025 58.903 9.11193C58.903 7.83564 60.4235 6.43776 63.5784 6.43776C67.1383 6.43776 70.042 7.91968 70.042 7.91968L71.4478 1.37514C71.4478 1.37514 68.2871 0 63.8305 0H63.8315ZM0.168729 0.4943L0 1.48191C0 1.48191 2.92725 2.02169 5.56412 3.09926C8.9593 4.33402 9.20062 5.05372 9.77253 7.28598L16.0027 31.4899H24.3548L37.2214 0.4943H28.8889L20.6212 21.5683L17.2476 3.70428C16.9386 1.65986 15.371 0.493311 13.4532 0.493311H0.16971L0.168729 0.4943ZM40.5724 0.4943L34.0361 31.4899H41.9821L48.4948 0.4943H40.5724ZM84.8892 0.4943C82.9733 0.4943 81.958 1.52838 81.2135 3.33455L69.5722 31.4899H77.9046L79.5164 26.797H89.6675L90.6475 31.4899H98L91.5863 0.4943H84.8892ZM85.9732 8.86873L88.4433 20.4996H81.8266L85.9742 8.86873H85.9732Z"
      fill="#1434CB" />
  </g>
  <defs>
    <clipPath id="clip0_636_23886">
      <rect width="98" height="32" fill="white" />
    </clipPath>
  </defs>
</svg>
  